<?xml version="1.0" encoding="UTF-8"?>
<svg id="a" data-name="Camada_1" xmlns="http://www.w3.org/2000/svg" xmlns:xlink="http://www.w3.org/1999/xlink" viewBox="0 0 79.75 79.75">
  <defs>
    <clipPath id="b">
      <circle cx="39.87" cy="39.87" r="39.75" fill="none"/>
    </clipPath>
    <clipPath id="c">
      <circle cx="39.87" cy="39.87" r="31.65" fill="none"/>
    </clipPath>
    <radialGradient id="d" data-name="Gradiente sem nome 15" cx="39.87" cy="39.87" fx="39.87" fy="39.87" r="31.78" gradientUnits="userSpaceOnUse">
      <stop offset="0" stop-color="#fff"/>
      <stop offset=".38" stop-color="#fdfdfd"/>
      <stop offset=".52" stop-color="#f6f6f6"/>
      <stop offset=".62" stop-color="#eaeaea"/>
      <stop offset=".7" stop-color="#d9d9d9"/>
      <stop offset=".76" stop-color="#c4c4c3"/>
      <stop offset=".82" stop-color="#a9a9a8"/>
      <stop offset=".88" stop-color="#888887"/>
      <stop offset=".93" stop-color="#636362"/>
      <stop offset=".97" stop-color="#3a3a39"/>
      <stop offset="1" stop-color="#1d1d1b"/>
    </radialGradient>
  </defs>
  <g>
    <g clip-path="url(#b)">
      <rect x=".12" y=".12" width="79.5" height="79.5" fill="#b7b6b6"/>
      <circle cx="39.87" cy="39.87" r="39.75" fill="#b7b6b6"/>
      <circle cx="39.87" cy="39.87" r="39.34" fill="#bababa"/>
      <circle cx="39.87" cy="39.87" r="38.93" fill="#bebebe"/>
      <circle cx="39.87" cy="39.87" r="38.52" fill="#c2c1c1"/>
      <circle cx="39.87" cy="39.87" r="38.11" fill="#c5c5c5"/>
      <circle cx="39.87" cy="39.87" r="37.7" fill="#c8c8c8"/>
      <circle cx="39.87" cy="39.87" r="37.29" fill="#cbcbcb"/>
      <circle cx="39.87" cy="39.87" r="36.88" fill="#cecece"/>
      <circle cx="39.87" cy="39.87" r="36.47" fill="#d1d1d1"/>
      <circle cx="39.87" cy="39.87" r="36.06" fill="#d4d4d3"/>
      <circle cx="39.87" cy="39.87" r="35.65" fill="#d6d6d6"/>
      <circle cx="39.87" cy="39.87" r="35.24" fill="#d9d9d8"/>
      <circle cx="39.87" cy="39.87" r="34.83" fill="#dbdbdb"/>
      <circle cx="39.87" cy="39.87" r="34.42" fill="#ddd"/>
      <circle cx="39.87" cy="39.87" r="34.01" fill="#dfdfdf"/>
      <circle cx="39.87" cy="39.87" r="33.6" fill="#e1e1e1"/>
      <circle cx="39.87" cy="39.87" r="33.19" fill="#e3e3e3"/>
      <circle cx="39.87" cy="39.87" r="32.78" fill="#e4e4e4"/>
      <circle cx="39.87" cy="39.87" r="32.37" fill="#e6e6e6"/>
      <circle cx="39.87" cy="39.87" r="31.96" fill="#e8e8e8"/>
      <circle cx="39.87" cy="39.87" r="31.55" fill="#e9e9e9"/>
      <circle cx="39.87" cy="39.87" r="31.14" fill="#ebebea"/>
      <circle cx="39.87" cy="39.87" r="30.73" fill="#ececec"/>
      <circle cx="39.87" cy="39.87" r="30.32" fill="#ededed"/>
      <circle cx="39.87" cy="39.87" r="29.91" fill="#eee"/>
      <circle cx="39.87" cy="39.87" r="29.51" fill="#f0efef"/>
      <circle cx="39.87" cy="39.87" r="29.1" fill="#f1f1f0"/>
      <circle cx="39.87" cy="39.87" r="28.69" fill="#f2f2f2"/>
      <circle cx="39.87" cy="39.87" r="28.28" fill="#f3f3f2"/>
      <circle cx="39.87" cy="39.87" r="27.87" fill="#f3f3f3"/>
      <circle cx="39.87" cy="39.87" r="27.46" fill="#f4f4f4"/>
      <circle cx="39.87" cy="39.87" r="27.05" fill="#f5f5f5"/>
      <circle cx="39.87" cy="39.87" r="26.64" fill="#f6f6f6"/>
      <circle cx="39.87" cy="39.87" r="26.23" fill="#f7f7f6"/>
      <circle cx="39.87" cy="39.87" r="25.82" fill="#f7f7f7"/>
      <circle cx="39.87" cy="39.87" r="25.41" fill="#f8f8f8"/>
      <circle cx="39.87" cy="39.87" r="25" fill="#f8f8f8"/>
      <circle cx="39.87" cy="39.87" r="24.59" fill="#f9f9f9"/>
      <circle cx="39.87" cy="39.87" r="24.18" fill="#f9f9f9"/>
      <circle cx="39.87" cy="39.87" r="23.77" fill="#fafafa"/>
      <circle cx="39.87" cy="39.87" r="23.36" fill="#fafafa"/>
      <circle cx="39.87" cy="39.87" r="22.95" fill="#fbfbfb"/>
      <circle cx="39.87" cy="39.87" r="22.54" fill="#fbfbfb"/>
      <circle cx="39.87" cy="39.87" r="22.13" fill="#fcfcfc"/>
      <circle cx="39.87" cy="39.87" r="21.72" fill="#fcfcfc"/>
      <circle cx="39.87" cy="39.87" r="21.31" fill="#fcfcfc"/>
      <circle cx="39.87" cy="39.87" r="20.9" fill="#fcfcfc"/>
      <circle cx="39.87" cy="39.87" r="20.49" fill="#fdfdfd"/>
      <circle cx="39.87" cy="39.87" r="20.08" fill="#fdfdfd"/>
      <circle cx="39.87" cy="39.87" r="19.67" fill="#fdfdfd"/>
      <circle cx="39.87" cy="39.87" r="19.26" fill="#fdfdfd"/>
      <circle cx="39.87" cy="39.87" r="18.85" fill="#fdfdfd"/>
      <circle cx="39.87" cy="39.87" r="18.44" fill="#fefefe"/>
      <circle cx="39.87" cy="39.87" r="18.03" fill="#fefefe"/>
      <circle cx="39.87" cy="39.87" r="17.62" fill="#fefefe"/>
      <circle cx="39.87" cy="39.87" r="17.21" fill="#fefefe"/>
      <circle cx="39.87" cy="39.87" r="16.8" fill="#fefefe"/>
      <circle cx="39.87" cy="39.87" r="16.39" fill="#fefefe"/>
      <circle cx="39.87" cy="39.87" r="15.98" fill="#fefefe"/>
      <circle cx="39.87" cy="39.87" r="15.57" fill="#fefefe"/>
      <circle cx="39.87" cy="39.87" r="15.16" fill="#fff"/>
      <circle cx="39.87" cy="39.87" r="14.75" fill="#fff"/>
      <circle cx="39.87" cy="39.87" r="14.34" fill="#fff"/>
      <circle cx="39.87" cy="39.87" r="13.93" fill="#fff"/>
      <circle cx="39.87" cy="39.87" r="13.52" fill="#fff"/>
      <circle cx="39.87" cy="39.87" r="13.11" fill="#fff"/>
      <circle cx="39.87" cy="39.87" r="12.7" fill="#fff"/>
      <circle cx="39.87" cy="39.87" r="12.29" fill="#fff"/>
      <circle cx="39.87" cy="39.87" r="11.88" fill="#fff"/>
      <circle cx="39.87" cy="39.87" r="11.47" fill="#fff"/>
      <circle cx="39.87" cy="39.87" r="11.06" fill="#fff"/>
      <circle cx="39.87" cy="39.87" r="10.65" fill="#fff"/>
      <circle cx="39.87" cy="39.87" r="10.24" fill="#fff"/>
      <circle cx="39.87" cy="39.87" r="9.84" fill="#fff"/>
      <circle cx="39.87" cy="39.87" r="9.43" fill="#fff"/>
      <circle cx="39.87" cy="39.87" r="9.02" fill="#fff"/>
      <circle cx="39.87" cy="39.87" r="8.61" fill="#fff"/>
      <circle cx="39.87" cy="39.87" r="8.2" fill="#fff"/>
      <circle cx="39.87" cy="39.87" r="7.79" fill="#fff"/>
      <circle cx="39.87" cy="39.87" r="7.38" fill="#fff"/>
      <circle cx="39.87" cy="39.87" r="6.97" fill="#fff"/>
      <circle cx="39.87" cy="39.87" r="6.56" fill="#fff"/>
      <circle cx="39.87" cy="39.87" r="6.15" fill="#fff"/>
      <circle cx="39.87" cy="39.87" r="5.74" fill="#fff"/>
      <circle cx="39.87" cy="39.87" r="5.33" fill="#fff"/>
      <circle cx="39.87" cy="39.87" r="4.92" fill="#fff"/>
      <circle cx="39.87" cy="39.87" r="4.51" fill="#fff"/>
      <circle cx="39.87" cy="39.87" r="4.1" fill="#fff"/>
      <circle cx="39.87" cy="39.87" r="3.69" fill="#fff"/>
      <circle cx="39.87" cy="39.87" r="3.28" fill="#fff"/>
      <circle cx="39.87" cy="39.87" r="2.87" fill="#fff"/>
      <circle cx="39.87" cy="39.87" r="2.46" fill="#fff"/>
      <circle cx="39.87" cy="39.87" r="2.05" fill="#fff"/>
      <circle cx="39.87" cy="39.87" r="1.64" fill="#fff"/>
      <circle cx="39.87" cy="39.87" r="1.23" fill="#fff"/>
      <circle cx="39.87" cy="39.87" r=".82" fill="#fff"/>
      <circle cx="39.87" cy="39.87" r=".41" fill="#fff"/>
    </g>
    <path d="M39.87,79.75C17.89,79.75,0,61.86,0,39.88S17.89,0,39.87,0s39.88,17.89,39.88,39.88-17.89,39.87-39.88,39.87ZM39.87.25C18.03.25.25,18.03.25,39.88s17.78,39.62,39.62,39.62,39.62-17.78,39.62-39.62S61.72.25,39.87.25Z" fill="#616160"/>
  </g>
  <g>
    <g clip-path="url(#c)">
      <rect x="8.22" y="8.22" width="63.31" height="63.31" fill="#1d1d1b"/>
      <circle cx="39.87" cy="39.87" r="31.65" fill="#1d1d1b"/>
      <circle cx="39.9" cy="39.79" r="31.53" fill="#1d1d1b"/>
      <circle cx="39.92" cy="39.71" r="31.41" fill="#1d1d1b"/>
      <circle cx="39.94" cy="39.63" r="31.28" fill="#1d1d1b"/>
      <circle cx="39.96" cy="39.55" r="31.16" fill="#1d1d1b"/>
      <circle cx="39.98" cy="39.46" r="31.03" fill="#1d1d1b"/>
      <circle cx="40.01" cy="39.38" r="30.91" fill="#1d1d1b"/>
      <circle cx="40.03" cy="39.3" r="30.79" fill="#1d1d1b"/>
      <circle cx="40.05" cy="39.22" r="30.66" fill="#1d1d1b"/>
      <circle cx="40.07" cy="39.14" r="30.54" fill="#1d1d1b"/>
      <circle cx="40.09" cy="39.05" r="30.41" fill="#1d1d1b"/>
      <circle cx="40.12" cy="38.97" r="30.29" fill="#1d1d1b"/>
      <circle cx="40.14" cy="38.89" r="30.16" fill="#1d1d1b"/>
      <circle cx="40.16" cy="38.81" r="30.04" fill="#1d1d1b"/>
      <circle cx="40.18" cy="38.73" r="29.92" fill="#1d1d1b"/>
      <circle cx="40.2" cy="38.64" r="29.79" fill="#1d1d1b"/>
      <circle cx="40.23" cy="38.56" r="29.67" fill="#1d1d1b"/>
      <circle cx="40.25" cy="38.48" r="29.54" fill="#1d1d1b"/>
      <circle cx="40.27" cy="38.4" r="29.42" fill="#1d1d1b"/>
      <circle cx="40.29" cy="38.32" r="29.3" fill="#1d1d1c"/>
      <circle cx="40.31" cy="38.23" r="29.17" fill="#1d1d1c"/>
      <circle cx="40.34" cy="38.15" r="29.05" fill="#1d1d1c"/>
      <circle cx="40.36" cy="38.07" r="28.92" fill="#1d1d1c"/>
      <circle cx="40.38" cy="37.99" r="28.8" fill="#1d1d1c"/>
      <circle cx="40.4" cy="37.91" r="28.68" fill="#1d1d1c"/>
      <circle cx="40.42" cy="37.82" r="28.55" fill="#1d1d1c"/>
      <circle cx="40.45" cy="37.74" r="28.43" fill="#1d1d1c"/>
      <circle cx="40.47" cy="37.66" r="28.3" fill="#1e1d1c"/>
      <circle cx="40.49" cy="37.58" r="28.18" fill="#1e1d1c"/>
      <circle cx="40.51" cy="37.5" r="28.05" fill="#1e1e1c"/>
      <circle cx="40.53" cy="37.41" r="27.93" fill="#1e1e1c"/>
      <circle cx="40.56" cy="37.33" r="27.81" fill="#1e1e1c"/>
      <circle cx="40.58" cy="37.25" r="27.68" fill="#1e1e1c"/>
      <circle cx="40.6" cy="37.17" r="27.56" fill="#1e1e1d"/>
      <circle cx="40.62" cy="37.09" r="27.43" fill="#1e1e1d"/>
      <circle cx="40.64" cy="37" r="27.31" fill="#1e1e1d"/>
      <circle cx="40.67" cy="36.92" r="27.19" fill="#1e1e1d"/>
      <circle cx="40.69" cy="36.84" r="27.06" fill="#1f1e1d"/>
      <circle cx="40.71" cy="36.76" r="26.94" fill="#1f1e1d"/>
      <circle cx="40.73" cy="36.68" r="26.81" fill="#1f1f1d"/>
      <circle cx="40.75" cy="36.59" r="26.69" fill="#1f1f1d"/>
      <circle cx="40.77" cy="36.51" r="26.56" fill="#1f1f1e"/>
      <circle cx="40.8" cy="36.43" r="26.44" fill="#1f1f1e"/>
      <circle cx="40.82" cy="36.35" r="26.32" fill="#1f1f1e"/>
      <circle cx="40.84" cy="36.27" r="26.19" fill="#201f1e"/>
      <circle cx="40.86" cy="36.18" r="26.07" fill="#20201e"/>
      <circle cx="40.88" cy="36.1" r="25.94" fill="#20201e"/>
      <circle cx="40.91" cy="36.02" r="25.82" fill="#20201f"/>
      <circle cx="40.93" cy="35.94" r="25.7" fill="#20201f"/>
      <circle cx="40.95" cy="35.86" r="25.57" fill="#21201f"/>
      <circle cx="40.97" cy="35.77" r="25.45" fill="#21211f"/>
      <circle cx="40.99" cy="35.69" r="25.32" fill="#21211f"/>
      <circle cx="41.02" cy="35.61" r="25.2" fill="#212120"/>
      <circle cx="41.04" cy="35.53" r="25.08" fill="#212120"/>
      <circle cx="41.06" cy="35.45" r="24.95" fill="#222120"/>
      <circle cx="41.08" cy="35.36" r="24.83" fill="#222220"/>
      <circle cx="41.1" cy="35.28" r="24.7" fill="#222221"/>
      <circle cx="41.13" cy="35.2" r="24.58" fill="#222221"/>
      <circle cx="41.15" cy="35.12" r="24.45" fill="#232221"/>
      <circle cx="41.17" cy="35.04" r="24.33" fill="#232321"/>
      <circle cx="41.19" cy="34.95" r="24.21" fill="#232322"/>
      <circle cx="41.21" cy="34.87" r="24.08" fill="#232322"/>
      <circle cx="41.24" cy="34.79" r="23.96" fill="#242422"/>
      <circle cx="41.26" cy="34.71" r="23.83" fill="#242423"/>
      <circle cx="41.28" cy="34.63" r="23.71" fill="#242423"/>
      <circle cx="41.3" cy="34.54" r="23.59" fill="#252423"/>
      <circle cx="41.32" cy="34.46" r="23.46" fill="#252524"/>
      <circle cx="41.35" cy="34.38" r="23.34" fill="#252524"/>
      <circle cx="41.37" cy="34.3" r="23.21" fill="#262524"/>
      <circle cx="41.39" cy="34.22" r="23.09" fill="#262625"/>
      <circle cx="41.41" cy="34.13" r="22.96" fill="#262625"/>
      <circle cx="41.43" cy="34.05" r="22.84" fill="#272725"/>
      <circle cx="41.46" cy="33.97" r="22.72" fill="#272726"/>
      <circle cx="41.48" cy="33.89" r="22.59" fill="#272726"/>
      <circle cx="41.5" cy="33.81" r="22.47" fill="#282827"/>
      <circle cx="41.52" cy="33.72" r="22.34" fill="#282827"/>
      <circle cx="41.54" cy="33.64" r="22.22" fill="#292827"/>
      <circle cx="41.57" cy="33.56" r="22.1" fill="#292928"/>
      <circle cx="41.59" cy="33.48" r="21.97" fill="#2a2928"/>
      <circle cx="41.61" cy="33.4" r="21.85" fill="#2a2a29"/>
      <circle cx="41.63" cy="33.31" r="21.72" fill="#2a2a29"/>
      <circle cx="41.65" cy="33.23" r="21.6" fill="#2b2b2a"/>
      <circle cx="41.67" cy="33.15" r="21.48" fill="#2b2b2a"/>
      <circle cx="41.7" cy="33.07" r="21.35" fill="#2c2c2b"/>
      <circle cx="41.72" cy="32.99" r="21.23" fill="#2c2c2b"/>
      <circle cx="41.74" cy="32.9" r="21.1" fill="#2d2d2b"/>
      <circle cx="41.76" cy="32.82" r="20.98" fill="#2d2d2c"/>
      <circle cx="41.78" cy="32.74" r="20.85" fill="#2e2e2c"/>
      <circle cx="41.81" cy="32.66" r="20.73" fill="#2e2e2d"/>
      <circle cx="41.83" cy="32.58" r="20.61" fill="#2f2f2e"/>
      <circle cx="41.85" cy="32.49" r="20.48" fill="#2f2f2e"/>
      <circle cx="41.87" cy="32.41" r="20.36" fill="#30302f"/>
      <circle cx="41.89" cy="32.33" r="20.23" fill="#30302f"/>
      <circle cx="41.92" cy="32.25" r="20.11" fill="#313130"/>
      <circle cx="41.94" cy="32.17" r="19.99" fill="#313130"/>
      <circle cx="41.96" cy="32.08" r="19.86" fill="#323231"/>
      <circle cx="41.98" cy="32" r="19.74" fill="#333231"/>
      <circle cx="42" cy="31.92" r="19.61" fill="#333332"/>
      <circle cx="42.03" cy="31.84" r="19.49" fill="#343333"/>
      <circle cx="42.05" cy="31.76" r="19.36" fill="#343433"/>
      <circle cx="42.07" cy="31.67" r="19.24" fill="#353534"/>
      <circle cx="42.09" cy="31.59" r="19.12" fill="#363534"/>
      <circle cx="42.11" cy="31.51" r="18.99" fill="#363635"/>
      <circle cx="42.14" cy="31.43" r="18.87" fill="#373736"/>
      <circle cx="42.16" cy="31.35" r="18.74" fill="#373736"/>
      <circle cx="42.18" cy="31.26" r="18.62" fill="#383837"/>
      <circle cx="42.2" cy="31.18" r="18.5" fill="#393838"/>
      <circle cx="42.22" cy="31.1" r="18.37" fill="#393938"/>
      <circle cx="42.25" cy="31.02" r="18.25" fill="#3a3a39"/>
      <circle cx="42.27" cy="30.94" r="18.12" fill="#3b3a3a"/>
      <circle cx="42.29" cy="30.85" r="18" fill="#3b3b3a"/>
      <circle cx="42.31" cy="30.77" r="17.88" fill="#3c3c3b"/>
      <circle cx="42.33" cy="30.69" r="17.75" fill="#3d3d3c"/>
      <circle cx="42.36" cy="30.61" r="17.63" fill="#3e3d3c"/>
      <circle cx="42.38" cy="30.53" r="17.5" fill="#3e3e3d"/>
      <circle cx="42.4" cy="30.44" r="17.38" fill="#3f3f3e"/>
      <circle cx="42.42" cy="30.36" r="17.25" fill="#403f3f"/>
      <circle cx="42.44" cy="30.28" r="17.13" fill="#40403f"/>
      <circle cx="42.47" cy="30.2" r="17.01" fill="#414140"/>
      <circle cx="42.49" cy="30.12" r="16.88" fill="#424241"/>
      <circle cx="42.51" cy="30.03" r="16.76" fill="#434342"/>
      <circle cx="42.53" cy="29.95" r="16.63" fill="#444342"/>
      <circle cx="42.55" cy="29.87" r="16.51" fill="#444443"/>
      <circle cx="42.57" cy="29.79" r="16.39" fill="#454544"/>
      <circle cx="42.6" cy="29.71" r="16.26" fill="#464645"/>
      <circle cx="42.62" cy="29.62" r="16.14" fill="#474746"/>
      <circle cx="42.64" cy="29.54" r="16.01" fill="#484747"/>
      <circle cx="42.66" cy="29.46" r="15.89" fill="#494847"/>
      <circle cx="42.68" cy="29.38" r="15.77" fill="#494948"/>
      <circle cx="42.71" cy="29.3" r="15.64" fill="#4a4a49"/>
      <circle cx="42.73" cy="29.21" r="15.52" fill="#4b4b4a"/>
      <circle cx="42.75" cy="29.13" r="15.39" fill="#4c4c4b"/>
      <circle cx="42.77" cy="29.05" r="15.27" fill="#4d4d4c"/>
      <circle cx="42.79" cy="28.97" r="15.14" fill="#4e4e4d"/>
      <circle cx="42.82" cy="28.89" r="15.02" fill="#4f4f4e"/>
      <circle cx="42.84" cy="28.8" r="14.9" fill="#50504f"/>
      <circle cx="42.86" cy="28.72" r="14.77" fill="#515050"/>
      <circle cx="42.88" cy="28.64" r="14.65" fill="#525151"/>
      <circle cx="42.9" cy="28.56" r="14.52" fill="#535252"/>
      <circle cx="42.93" cy="28.48" r="14.4" fill="#545353"/>
      <circle cx="42.95" cy="28.39" r="14.28" fill="#555454"/>
      <circle cx="42.97" cy="28.31" r="14.15" fill="#565555"/>
      <circle cx="42.99" cy="28.23" r="14.03" fill="#575656"/>
      <circle cx="43.01" cy="28.15" r="13.9" fill="#585757"/>
      <circle cx="43.04" cy="28.07" r="13.78" fill="#595858"/>
      <circle cx="43.06" cy="27.98" r="13.65" fill="#5a5959"/>
      <circle cx="43.08" cy="27.9" r="13.53" fill="#5b5a5a"/>
      <circle cx="43.1" cy="27.82" r="13.41" fill="#5c5b5b"/>
      <circle cx="43.12" cy="27.74" r="13.28" fill="#5d5c5c"/>
      <circle cx="43.15" cy="27.66" r="13.16" fill="#5e5d5d"/>
      <circle cx="43.17" cy="27.57" r="13.03" fill="#5f5e5e"/>
      <circle cx="43.19" cy="27.49" r="12.91" fill="#605f5f"/>
      <circle cx="43.21" cy="27.41" r="12.79" fill="#616060"/>
      <circle cx="43.23" cy="27.33" r="12.66" fill="#626261"/>
      <circle cx="43.26" cy="27.25" r="12.54" fill="#636362"/>
      <circle cx="43.28" cy="27.16" r="12.41" fill="#646463"/>
      <circle cx="43.3" cy="27.08" r="12.29" fill="#656564"/>
      <circle cx="43.32" cy="27" r="12.17" fill="#666665"/>
      <circle cx="43.34" cy="26.92" r="12.04" fill="#676766"/>
      <circle cx="43.37" cy="26.84" r="11.92" fill="#686868"/>
      <circle cx="43.39" cy="26.75" r="11.79" fill="#6a6969"/>
      <circle cx="43.41" cy="26.67" r="11.67" fill="#6b6a6a"/>
      <circle cx="43.43" cy="26.59" r="11.54" fill="#6c6c6b"/>
      <circle cx="43.45" cy="26.51" r="11.42" fill="#6d6d6c"/>
      <circle cx="43.47" cy="26.43" r="11.3" fill="#6e6e6d"/>
      <circle cx="43.5" cy="26.34" r="11.17" fill="#706f6f"/>
      <circle cx="43.52" cy="26.26" r="11.05" fill="#717170"/>
      <circle cx="43.54" cy="26.18" r="10.92" fill="#727271"/>
      <circle cx="43.56" cy="26.1" r="10.8" fill="#737372"/>
      <circle cx="43.58" cy="26.02" r="10.68" fill="#757474"/>
      <circle cx="43.61" cy="25.93" r="10.55" fill="#767675"/>
      <circle cx="43.63" cy="25.85" r="10.43" fill="#777776"/>
      <circle cx="43.65" cy="25.77" r="10.3" fill="#797878"/>
      <circle cx="43.67" cy="25.69" r="10.18" fill="#7a7a79"/>
      <circle cx="43.69" cy="25.61" r="10.05" fill="#7b7b7a"/>
      <circle cx="43.72" cy="25.52" r="9.93" fill="#7d7c7c"/>
      <circle cx="43.74" cy="25.44" r="9.81" fill="#7e7e7d"/>
      <circle cx="43.76" cy="25.36" r="9.68" fill="#7f7f7e"/>
      <circle cx="43.78" cy="25.28" r="9.56" fill="#818080"/>
      <circle cx="43.8" cy="25.2" r="9.43" fill="#828281"/>
      <circle cx="43.83" cy="25.11" r="9.31" fill="#838383"/>
      <circle cx="43.85" cy="25.03" r="9.19" fill="#858584"/>
      <circle cx="43.87" cy="24.95" r="9.06" fill="#868685"/>
      <circle cx="43.89" cy="24.87" r="8.94" fill="#888787"/>
      <circle cx="43.91" cy="24.79" r="8.81" fill="#898988"/>
      <circle cx="43.94" cy="24.7" r="8.69" fill="#8a8a8a"/>
      <circle cx="43.96" cy="24.62" r="8.57" fill="#8c8b8b"/>
      <circle cx="43.98" cy="24.54" r="8.44" fill="#8d8d8c"/>
      <circle cx="44" cy="24.46" r="8.32" fill="#8e8e8e"/>
      <circle cx="44.02" cy="24.38" r="8.19" fill="#90908f"/>
      <circle cx="44.05" cy="24.29" r="8.07" fill="#919191"/>
      <circle cx="44.07" cy="24.21" r="7.94" fill="#939292"/>
      <circle cx="44.09" cy="24.13" r="7.82" fill="#949493"/>
      <circle cx="44.11" cy="24.05" r="7.7" fill="#959595"/>
      <circle cx="44.13" cy="23.97" r="7.57" fill="#979796"/>
      <circle cx="44.16" cy="23.88" r="7.45" fill="#989898"/>
      <circle cx="44.18" cy="23.8" r="7.32" fill="#9a9a99"/>
      <circle cx="44.2" cy="23.72" r="7.2" fill="#9b9b9b"/>
      <circle cx="44.22" cy="23.64" r="7.08" fill="#9d9d9c"/>
      <circle cx="44.24" cy="23.56" r="6.95" fill="#9e9e9e"/>
      <circle cx="44.27" cy="23.47" r="6.83" fill="#a0a09f"/>
      <circle cx="44.29" cy="23.39" r="6.7" fill="#a1a1a1"/>
      <circle cx="44.31" cy="23.31" r="6.58" fill="#a3a3a2"/>
      <circle cx="44.33" cy="23.23" r="6.45" fill="#a5a4a4"/>
      <circle cx="44.35" cy="23.15" r="6.33" fill="#a6a6a6"/>
      <circle cx="44.37" cy="23.06" r="6.21" fill="#a8a8a7"/>
      <circle cx="44.4" cy="22.98" r="6.08" fill="#a9a9a9"/>
      <circle cx="44.42" cy="22.9" r="5.96" fill="#ababaa"/>
      <circle cx="44.44" cy="22.82" r="5.83" fill="#adacac"/>
      <circle cx="44.46" cy="22.74" r="5.71" fill="#aeaeae"/>
      <circle cx="44.48" cy="22.65" r="5.59" fill="#b0b0af"/>
      <circle cx="44.51" cy="22.57" r="5.46" fill="#b2b1b1"/>
      <circle cx="44.53" cy="22.49" r="5.34" fill="#b3b3b3"/>
      <circle cx="44.55" cy="22.41" r="5.21" fill="#b5b5b4"/>
      <circle cx="44.57" cy="22.33" r="5.09" fill="#b6b6b6"/>
      <circle cx="44.59" cy="22.24" r="4.97" fill="#b8b8b8"/>
      <circle cx="44.62" cy="22.16" r="4.84" fill="#babab9"/>
      <circle cx="44.64" cy="22.08" r="4.72" fill="#bbb"/>
      <circle cx="44.66" cy="22" r="4.59" fill="#bdbdbd"/>
      <circle cx="44.68" cy="21.92" r="4.47" fill="#bfbfbe"/>
      <circle cx="44.7" cy="21.83" r="4.34" fill="silver"/>
      <circle cx="44.73" cy="21.75" r="4.22" fill="#c2c2c2"/>
      <circle cx="44.75" cy="21.67" r="4.1" fill="#c4c4c3"/>
      <circle cx="44.77" cy="21.59" r="3.97" fill="#c5c5c5"/>
      <circle cx="44.79" cy="21.51" r="3.85" fill="#c7c7c7"/>
      <circle cx="44.81" cy="21.42" r="3.72" fill="#c9c9c9"/>
      <circle cx="44.84" cy="21.34" r="3.6" fill="#cbcbca"/>
      <circle cx="44.86" cy="21.26" r="3.48" fill="#ccc"/>
      <circle cx="44.88" cy="21.18" r="3.35" fill="#cecece"/>
      <circle cx="44.9" cy="21.1" r="3.23" fill="#d0d0d0"/>
      <circle cx="44.92" cy="21.01" r="3.1" fill="#d2d2d2"/>
      <circle cx="44.95" cy="20.93" r="2.98" fill="#d4d4d3"/>
      <circle cx="44.97" cy="20.85" r="2.86" fill="#d6d5d5"/>
      <circle cx="44.99" cy="20.77" r="2.73" fill="#d7d7d7"/>
      <circle cx="45.01" cy="20.69" r="2.61" fill="#d9d9d9"/>
      <circle cx="45.03" cy="20.6" r="2.48" fill="#dbdbdb"/>
      <circle cx="45.06" cy="20.52" r="2.36" fill="#ddd"/>
      <circle cx="45.08" cy="20.44" r="2.23" fill="#dfdfde"/>
      <circle cx="45.1" cy="20.36" r="2.11" fill="#e0e0e0"/>
      <circle cx="45.12" cy="20.28" r="1.99" fill="#e2e2e2"/>
      <circle cx="45.14" cy="20.19" r="1.86" fill="#e4e4e4"/>
      <circle cx="45.17" cy="20.11" r="1.74" fill="#e6e6e6"/>
      <circle cx="45.19" cy="20.03" r="1.61" fill="#e8e8e8"/>
      <circle cx="45.21" cy="19.95" r="1.49" fill="#eaeae9"/>
      <circle cx="45.23" cy="19.87" r="1.37" fill="#ecebeb"/>
      <circle cx="45.25" cy="19.78" r="1.24" fill="#ededed"/>
      <circle cx="45.28" cy="19.7" r="1.12" fill="#efefef"/>
      <circle cx="45.3" cy="19.62" r=".99" fill="#f1f1f1"/>
      <circle cx="45.32" cy="19.54" r=".87" fill="#f3f3f3"/>
      <circle cx="45.34" cy="19.46" r=".74" fill="#f5f5f5"/>
      <circle cx="45.36" cy="19.37" r=".62" fill="#f7f7f7"/>
      <circle cx="45.38" cy="19.29" r=".5" fill="#f9f9f9"/>
      <circle cx="45.41" cy="19.21" r=".37" fill="#fbfbfb"/>
      <circle cx="45.43" cy="19.13" r=".25" fill="#fdfdfd"/>
      <circle cx="45.45" cy="19.05" r=".12" fill="#fff"/>
    </g>
    <path d="M39.87,71.65c-17.52,0-31.78-14.26-31.78-31.78s14.26-31.78,31.78-31.78,31.78,14.26,31.78,31.78-14.26,31.78-31.78,31.78ZM39.87,8.35c-17.39,0-31.53,14.14-31.53,31.53s14.14,31.53,31.53,31.53,31.53-14.14,31.53-31.53-14.14-31.53-31.53-31.53Z" fill="url(#d)"/>
  </g>
</svg>