<?xml version="1.0" encoding="UTF-8"?>
<svg xmlns="http://www.w3.org/2000/svg" version="1.1" viewBox="0 0 16 16">
  <!-- Generator: Adobe Illustrator 28.7.1, SVG Export Plug-In . SVG Version: 1.2.0 Build 142)  -->
  <g>
    <g id="Camada_1">
      <g id="loading">
        <path d="M7,13.9c.7.1,1.3.1,2,0" fill="#cad1d8" fill-rule="evenodd" stroke="#d6d6d6" stroke-width="2"/>
        <path d="M7,2.1c.7-.1,1.3-.1,2,0M13.9,7c.1.7.1,1.3,0,2" fill="#cad1d8" fill-rule="evenodd" stroke="#f2f2f2" stroke-width="2"/>
        <path d="M2.1,7c0,.7,0,1.3,0,2" fill="#cad1d8" fill-rule="evenodd" stroke="#d6d6d6" stroke-width="2"/>
        <path d="M11.5,3.1c.5.4,1,.9,1.4,1.4" fill="#cad1d8" fill-rule="evenodd" stroke="#f2f2f2" stroke-width="2"/>
        <path d="M3.1,11.4c.4.5.9,1,1.4,1.4" fill="#cad1d8" fill-rule="evenodd" stroke="#d6d6d6" stroke-width="2"/>
        <path d="M12.9,11.5c-.4.5-.9,1-1.4,1.4M4.5,3.1c-.5.4-1,.9-1.4,1.4M13.1,4.8c.4.6.6,1.2.8,1.8" fill="#cad1d8" fill-rule="evenodd" stroke="#f2f2f2" stroke-width="2"/>
        <path d="M2.1,9.3c.2.7.4,1.3.8,1.8" fill="#cad1d8" fill-rule="evenodd" stroke="#d6d6d6" stroke-width="2"/>
        <path d="M11.2,13.1c-.6.4-1.2.6-1.8.8M6.7,2.1c-.7.2-1.3.4-1.8.8M9.4,2.1c.7.2,1.3.4,1.8.8" fill="#cad1d8" fill-rule="evenodd" stroke="#f2f2f2" stroke-width="2"/>
        <path d="M4.8,13.1c.6.4,1.2.6,1.8.8" fill="#cad1d8" fill-rule="evenodd" stroke="#d6d6d6" stroke-width="2"/>
        <path d="M13.9,9.4c-.2.7-.4,1.3-.8,1.8" fill="#cad1d8" fill-rule="evenodd" stroke="#f2f2f2" stroke-width="2"/>
        <path d="M2.9,4.8c-.4.6-.6,1.2-.8,1.8" fill="#cad1d8" fill-rule="evenodd" stroke="#d6d6d6" stroke-width="2"/>
        <path d="M12.5,8c0,2.5-2,4.5-4.5,4.5s-4.5-2-4.5-4.5,2-4.5,4.5-4.5,4.5,2,4.5,4.5" fill="#d6d6d6"/>
        <path d="M8.3,8.3l.3-.3c.1,0,.2-.2.2-.3v-.3c0-.2,0-.4-.2-.6-.2,0-.4-.2-.7-.2h-.3c-.1,0-.3,0-.4,0v.4c0,0,.3,0,.4-.2h.4c.2,0,.3,0,.4,0,0,0,.1.2.1.3v.3s-.1.2-.2.3c0,0-.2.2-.4.5-.2.2-.4.4-.6.6v.3h1.7v-.3h-1.3l.7-.7" fill="#fff"/>
      </g>
    </g>
  </g>
</svg>