<?xml version="1.0" encoding="UTF-8"?>
<svg xmlns="http://www.w3.org/2000/svg" version="1.1" xmlns:xlink="http://www.w3.org/1999/xlink" viewBox="0 0 480 480">
  <defs>
    <radialGradient id="Gradiente_sem_nome_9" data-name="Gradiente sem nome 9" cx="256.6" cy="295.6" fx="316.9" fy="284.9" r="76.7" gradientUnits="userSpaceOnUse">
      <stop offset="0" stop-color="#fff"/>
      <stop offset="1" stop-color="#1d1d1d"/>
    </radialGradient>
    <radialGradient id="Gradiente_sem_nome_8" data-name="Gradiente sem nome 8" cx="303.7" cy="312.9" fx="303.7" fy="312.9" r="6.2" gradientUnits="userSpaceOnUse">
      <stop offset="0" stop-color="#fff"/>
      <stop offset=".8" stop-color="#1d1d1d"/>
      <stop offset="1" stop-color="#1d1d1d"/>
    </radialGradient>
  </defs>
  <!-- Generator: Adobe Illustrator 28.7.1, SVG Export Plug-In . SVG Version: 1.2.0 Build 142)  -->
  <g>
    <g id="Camada_1">
      <g>
        <path d="M240,18C117.4,18,18,117.4,18,240s99.4,222,222,222,222-99.4,222-222S362.6,18,240,18Z" fill="#c2c2c2"/>
        <circle cx="256.6" cy="295.6" r="76.7" fill="url(#Gradiente_sem_nome_9)"/>
        <path d="M240,24c119.1,0,216,96.9,216,216s-96.9,216-216,216S24,359.1,24,240,120.9,24,240,24M240,12C114,12,12,114,12,240s102,228,228,228,228-102,228-228S366,12,240,12h0Z" fill="#7b7b7b"/>
        <path d="M384,96l-100.2,80.8c-11.6-6.6-24.4-11.2-37.7-13.3l68.9-91.4,69,24ZM293.4,72.1l-56.2,90.2c-3.1-.2-6.1-.4-9.2-.4-10.2,0-20,1.3-29.4,3.8l29.4-93.8h65.4ZM205.4,79.4l-16.1,89.3c-11.9,4.2-22.8,10.4-32.4,18.1l-8.4-84.8s55-21.8,56.9-22.6ZM149.3,193.6c-7.8,7.4-14.5,16-20,25.3l-33.2-62.9,36-36,17.3,73.6ZM125,226.8c-3.8,8.3-6.8,17-8.8,26.3l-44.3-35.4,17.9-40.1,35.2,49.2ZM114.8,289.9l-42.8-17.4,3-35.6,39.5,28.4c-.4,3.5-.5,7.1-.5,10.7s.2,9.4.8,13.9ZM121.6,316.7l-35.3.8-9.7-29.5,39.7,10.3c1.2,6.2,3,12.4,5.3,18.4ZM133.7,339.8c-6.4,2.8-16.2,6.8-22.8,9.5-6.8-8.4-12.5-15.2-17-20.8,8.2-1.1,20.8-2.9,30.8-4.3,2.5,5.4,5.5,10.7,9,15.6Z" fill="#fff"/>
        <path d="M210.5,304.9l-11.1-26.7,114.9-76.6c-21.7-25.2-53.1-39.7-86.3-39.7-62.9,0-114,51.1-114,114s15,65.8,41.2,87.6c2.6-5.2,4.6-9.4,5.7-11.8,8.9-6.5,22.9-9.8,41.7-9.8s17.4,1.1,28.4,3.3l7.5,1.9-20.7-44.2-7.2,1.8Z" fill="#fff"/>
        <path d="M228,156c-66.3,0-120,53.7-120,120s17.3,71.1,44.4,93.1c2.1-4.2,4-8,5.5-11.1-23.9-20.4-37.9-49.9-37.9-82,0-59.6,48.4-108,108-108s60.9,13.7,81.3,37l10-6.7c-22-25.9-54.7-42.3-91.4-42.3Z" fill="#7b7b7b"/>
        <path d="M144,270c0-46.4,37.6-84,84-84l-6.2-6c-50.1,3.2-89.8,45.1-89.8,96s7.6,43.1,21,59.8c4.4-2.8,9.6-5,15.2-6.8-15-15.2-24.2-36-24.2-59ZM235.1,340.1c-5-1.1-19.3-4.1-32.5-4.1s-30.6,3.1-38.7,7.1c-4.7,2.3-8.3,6.2-10.6,10.8-6.2,12.7-20.1,39.9-21.1,41.9,1.3-.6,24.6-11.9,47.9-11.9,36,0,60,12,60,12,0,0,7.6-15.8,10.9-22.1l-15.8-33.8Z" fill="#7b7b7b"/>
        <path d="M190.5,348c10.5,0,19.5,3,25.5,7.5-16.5-1.5-24.8-.2-33,1.5-17.3,3.6-23.1,10.5-23.1,10.5.3-.6,6.6-13.5,6.6-13.5,0,0,9-6,24-6Z" fill="#ececec"/>
        <path d="M273.4,329.4c-9.4-4.7-18.1-11.5-25.9-20.4-8.4-9.5-20-15-32.2-15h-1.8l61.2,130.6c10.1-3.7,33.4-13.6,42.7-29-6.8-17.4-25.4-56.9-44-66.1Z" fill="#fdfdfd"/>
        <path d="M223.3,301c7.4,1.8,14.3,5.9,19.7,12,8.3,9.4,17.6,16.7,27.7,21.7,14.6,7.3,31.3,38.7,40,60.1-7.5,10-22.1,17.7-32.9,22.2l-54.4-116M215.3,288h-11.3l67.5,144s40.5-12,52.5-36c0,0-21.9-59-48-72-10.2-5.1-18.2-12.3-24-18.9-9.3-10.6-22.5-17.1-36.7-17.1h0Z" fill="#7b7b7b"/>
        <path d="M199.4,278.3l11.1,26.7,130.8-33.4-10.1-81.1-131.8,87.9Z" fill="#fff"/>
        <path d="M326.5,200.8l8.3,66.2-120.7,30.8-7.2-17.3,119.6-79.7M336,180l-144,96,15,36,141-36-12-96h0Z" fill="#7b7b7b"/>
        <circle cx="303.8" cy="313" r="5.4" fill="url(#Gradiente_sem_nome_8)"/>
        <path d="M304.6,313.9c1.4,2,6,10.3,16.3,13.8,7.7,2.6,17.9,2.5,25-3.1,9.8-7.6,4.5-18.5,13.8-26,7.4-6,21.3-7.6,30.6,0,6.8,5.6,9.9,15,8.2,24.5" fill="none" stroke="#1d1d1d" stroke-linecap="round" stroke-miterlimit="10" stroke-width="7"/>
        <g>
          <path d="M420.3,329.8c-19.8-.4-21.2.7-24.9,20.2.4-19.8-.7-21.2-20.2-24.9,19.8.4,21.2-.7,24.9-20.2-.4,19.8.7,21.2,20.2,24.9Z" fill="#8e8e8e"/>
          <path d="M412,345c-13.7-14.3-15.5-14.5-31.9-3.4,14.3-13.7,14.5-15.5,3.4-31.9,13.7,14.3,15.5,14.5,31.9,3.4-14.3,13.7-14.5,15.5-3.4,31.9Z" fill="#d4d4d4"/>
        </g>
      </g>
    </g>
  </g>
</svg>